<?xml version="1.0" encoding="utf-8"?>
<!-- Generator: Adobe Illustrator 19.0.0, SVG Export Plug-In . SVG Version: 6.00 Build 0)  -->
<svg version="1.1" xmlns="http://www.w3.org/2000/svg" xmlns:xlink="http://www.w3.org/1999/xlink" x="0px" y="0px"
	 viewBox="0 0 3159.9 4265.4" style="enable-background:new 0 0 3159.9 4265.4;" xml:space="preserve">
<style type="text/css">
	.st0{fill:#FFF200;stroke:#000000;stroke-width:2;stroke-miterlimit:10;}
	.st1{fill:#00AEEF;stroke:#000000;stroke-width:2;stroke-miterlimit:10;}
	.st2{fill:#00A651;stroke:#000000;stroke-width:2;stroke-miterlimit:10;}
	.st3{fill:#ED1C24;stroke:#000000;stroke-width:2;stroke-miterlimit:10;}
	.st4{display:none;fill:none;stroke:#ED1C24;stroke-width:2;stroke-miterlimit:10;}
	.st5{fill:none;stroke:#ED1C24;stroke-miterlimit:10;}
	.st6{stroke:#000000;stroke-width:2;stroke-miterlimit:10;}
	.st7{fill:none;stroke:#000000;stroke-width:2;stroke-miterlimit:10;}
	.st8{fill:none;stroke:#000000;stroke-miterlimit:10;}
</style>
<g id="Layer_1">
	<g id="XMLID_65_">
		<ellipse id="XMLID_52_" class="st0" cx="2361.5" cy="3701" rx="11" ry="11.7"/>
		<ellipse id="XMLID_54_" class="st0" cx="2361.5" cy="3573.2" rx="11" ry="11.7"/>
		<ellipse id="XMLID_55_" class="st0" cx="2361.5" cy="3445.4" rx="11" ry="11.7"/>
		<ellipse id="XMLID_56_" class="st0" cx="2361.5" cy="3317.6" rx="11" ry="11.7"/>
		<ellipse id="XMLID_57_" class="st0" cx="2361.5" cy="3189.8" rx="11" ry="11.7"/>
		<ellipse id="XMLID_58_" class="st1" cx="2361.5" cy="3062.1" rx="11" ry="11.7"/>
		<ellipse id="XMLID_73_" class="st1" cx="2361.5" cy="2863.3" rx="11" ry="11.7"/>
	</g>
	<ellipse id="XMLID_53_" class="st0" cx="2207.7" cy="3919.7" rx="11" ry="11.7"/>
	<ellipse id="XMLID_68_" class="st2" cx="1995.1" cy="3919.7" rx="11" ry="11.7"/>
	<g id="XMLID_59_">
		<ellipse id="XMLID_69_" class="st1" cx="1995.1" cy="3544.8" rx="11" ry="11.7"/>
		<ellipse id="XMLID_70_" class="st1" cx="1952.6" cy="3544.8" rx="11" ry="11.7"/>
		<ellipse id="XMLID_72_" class="st1" cx="1995.1" cy="3516.4" rx="11" ry="11.7"/>
		<ellipse id="XMLID_71_" class="st1" cx="1952.6" cy="3516.4" rx="11" ry="11.7"/>
	</g>
	<ellipse id="XMLID_74_" class="st3" cx="1952.6" cy="2636.1" rx="11" ry="11.7"/>
	<ellipse id="XMLID_75_" class="st3" cx="1995.1" cy="2636.1" rx="11" ry="11.7"/>
	<ellipse id="XMLID_79_" class="st0" cx="1952.6" cy="2352.1" rx="11" ry="11.7"/>
	<ellipse id="XMLID_78_" class="st0" cx="1995.1" cy="2352.1" rx="11" ry="11.7"/>
	<ellipse id="XMLID_83_" class="st3" cx="1952.6" cy="2068.1" rx="11" ry="11.7"/>
	<ellipse id="XMLID_82_" class="st3" cx="1995.1" cy="2068.1" rx="11" ry="11.7"/>
	<ellipse id="XMLID_81_" class="st3" cx="1952.6" cy="2323.7" rx="11" ry="11.7"/>
	<ellipse id="XMLID_80_" class="st3" cx="1995.1" cy="2323.7" rx="11" ry="11.7"/>
	<ellipse id="XMLID_77_" class="st1" cx="2080.2" cy="2709.9" rx="11" ry="11.7"/>
	<ellipse id="XMLID_76_" class="st1" cx="2003.7" cy="2636.1" rx="11" ry="11.7"/>
	<ellipse id="XMLID_60_" class="st2" cx="2207.7" cy="3544.9" rx="11" ry="11.7"/>
	<ellipse id="XMLID_61_" class="st2" cx="2207.7" cy="3062.1" rx="11" ry="11.7"/>
	<ellipse id="XMLID_63_" class="st2" cx="2119.9" cy="3544.9" rx="11" ry="11.7"/>
	<ellipse id="XMLID_62_" class="st2" cx="2119.9" cy="3062.1" rx="11" ry="11.7"/>
	<g id="XMLID_44_">
		<ellipse id="XMLID_31_" class="st2" cx="2491.7" cy="3985" rx="11" ry="11.7"/>
		<ellipse id="XMLID_45_" class="st2" cx="2420.8" cy="3985" rx="11" ry="11.7"/>
		<ellipse id="XMLID_51_" class="st2" cx="2491.7" cy="3928.2" rx="11" ry="11.7"/>
		<ellipse id="XMLID_50_" class="st2" cx="2420.8" cy="3928.2" rx="11" ry="11.7"/>
	</g>
	<g id="XMLID_64_">
		<ellipse id="XMLID_46_" class="st2" cx="2307.4" cy="3985" rx="11" ry="11.7"/>
		<ellipse id="XMLID_47_" class="st2" cx="2236.6" cy="3985" rx="11" ry="11.7"/>
		<ellipse id="XMLID_49_" class="st2" cx="2307.4" cy="3928.2" rx="11" ry="11.7"/>
		<ellipse id="XMLID_48_" class="st2" cx="2236.6" cy="3928.2" rx="11" ry="11.7"/>
	</g>
	<g id="XMLID_115_">
		<line id="XMLID_85_" class="st4" x1="1717.7" y1="974.7" x2="3214.8" y2="974.7"/>
		<line id="XMLID_66_" class="st4" x1="1836.4" y1="360.5" x2="1836.4" y2="4041"/>
		<line id="XMLID_67_" class="st4" x1="1717.7" y1="435.1" x2="2839.5" y2="435.1"/>
		<line id="XMLID_84_" class="st4" x1="1952.6" y1="2068.1" x2="1952.6" y2="360.5"/>
		<line id="XMLID_88_" class="st4" x1="2784.5" y1="708.9" x2="1606.7" y2="708.9"/>
		<g id="XMLID_90_">
			<ellipse id="XMLID_86_" class="st5" cx="2432.3" cy="974.7" rx="425.2" ry="426"/>
			<ellipse id="XMLID_87_" class="st5" cx="2436.3" cy="974.7" rx="538.6" ry="539.6"/>
		</g>
	</g>
	<ellipse id="XMLID_89_" class="st1" cx="2011.8" cy="974.7" rx="11.1" ry="11.7"/>
	<ellipse id="XMLID_92_" class="st1" cx="2054.6" cy="848.1" rx="11.1" ry="11.7"/>
	<ellipse id="XMLID_91_" class="st1" cx="2020.1" cy="1107.9" rx="11.1" ry="11.7"/>
	<ellipse id="XMLID_96_" class="st6" cx="2436.3" cy="974.7" rx="11" ry="11.7"/>
	<ellipse id="XMLID_93_" class="st3" cx="2065.2" cy="571.2" rx="11.1" ry="11.7"/>
	<ellipse id="XMLID_101_" class="st3" cx="2381.2" cy="435.2" rx="11.1" ry="11.7"/>
	<ellipse id="XMLID_100_" class="st3" cx="2247.9" cy="451.1" rx="11.1" ry="11.7"/>
	<ellipse id="XMLID_94_" class="st3" cx="1982.1" cy="685.7" rx="11.1" ry="11.7"/>
	<ellipse id="XMLID_95_" class="st3" cx="1951.9" cy="815.8" rx="11.1" ry="11.7"/>
	<ellipse id="XMLID_97_" class="st3" cx="1935.2" cy="948.2" rx="11.1" ry="11.7"/>
	<ellipse id="XMLID_98_" class="st3" cx="1935.2" cy="1034.6" rx="11.1" ry="11.7"/>
	<ellipse id="XMLID_99_" class="st3" cx="1935.2" cy="1123" rx="11.1" ry="11.7"/>
	<line id="XMLID_102_" class="st7" x1="2432.3" y1="974.7" x2="2857.5" y2="974.7"/>
	<ellipse id="XMLID_114_" class="st1" cx="2857.5" cy="974.7" rx="11" ry="11.7"/>
	<ellipse id="XMLID_113_" class="st1" cx="2815.1" cy="848.1" rx="11" ry="11.7"/>
	<ellipse id="XMLID_112_" class="st1" cx="2836" cy="1107.9" rx="11" ry="11.7"/>
	<ellipse id="XMLID_111_" class="st3" cx="2804.6" cy="571.2" rx="11" ry="11.7"/>
	<ellipse id="XMLID_110_" class="st3" cx="2491.1" cy="435.2" rx="11" ry="11.7"/>
	<ellipse id="XMLID_109_" class="st3" cx="2623.3" cy="451.1" rx="11" ry="11.7"/>
	<ellipse id="XMLID_108_" class="st3" cx="2887.1" cy="685.7" rx="11" ry="11.7"/>
	<ellipse id="XMLID_107_" class="st3" cx="2916.9" cy="815.8" rx="11" ry="11.7"/>
	<ellipse id="XMLID_106_" class="st3" cx="2933.5" cy="933.2" rx="11" ry="11.7"/>
	<ellipse id="XMLID_105_" class="st3" cx="2933.5" cy="1034.6" rx="11" ry="11.7"/>
	<ellipse id="XMLID_104_" class="st3" cx="2933.5" cy="1123" rx="11" ry="11.7"/>
	<line id="XMLID_103_" class="st7" x1="2887.1" y1="685.7" x2="2436.3" y2="974.7"/>
	<g id="XMLID_181_">
		<ellipse id="XMLID_188_" class="st0" cx="853.3" cy="3698.2" rx="11" ry="11.7"/>
		<ellipse id="XMLID_187_" class="st0" cx="853.3" cy="3570.7" rx="11" ry="11.7"/>
		<ellipse id="XMLID_186_" class="st0" cx="853.3" cy="3443.1" rx="11" ry="11.7"/>
		<ellipse id="XMLID_185_" class="st0" cx="853.3" cy="3315.6" rx="11" ry="11.7"/>
		<ellipse id="XMLID_184_" class="st0" cx="853.3" cy="3188" rx="11" ry="11.7"/>
		<ellipse id="XMLID_183_" class="st1" cx="853.3" cy="3060.4" rx="11" ry="11.7"/>
		<ellipse id="XMLID_182_" class="st1" cx="853.3" cy="2862" rx="11" ry="11.7"/>
	</g>
	<ellipse id="XMLID_180_" class="st0" cx="1007.1" cy="3916.5" rx="11" ry="11.7"/>
	<ellipse id="XMLID_179_" class="st2" cx="1219.7" cy="3916.5" rx="11" ry="11.7"/>
	<g id="XMLID_174_">
		<ellipse id="XMLID_178_" class="st1" cx="1219.7" cy="3542.3" rx="11" ry="11.7"/>
		<ellipse id="XMLID_177_" class="st1" cx="1262.2" cy="3542.3" rx="11" ry="11.7"/>
		<ellipse id="XMLID_176_" class="st1" cx="1219.7" cy="3514" rx="11" ry="11.7"/>
		<ellipse id="XMLID_175_" class="st1" cx="1262.2" cy="3514" rx="11" ry="11.7"/>
	</g>
	<ellipse id="XMLID_173_" class="st3" cx="1262.2" cy="2635.2" rx="11" ry="11.7"/>
	<ellipse id="XMLID_172_" class="st3" cx="1219.7" cy="2635.2" rx="11" ry="11.7"/>
	<ellipse id="XMLID_171_" class="st0" cx="1262.2" cy="2351.8" rx="11" ry="11.7"/>
	<ellipse id="XMLID_170_" class="st0" cx="1219.7" cy="2351.8" rx="11" ry="11.7"/>
	<ellipse id="XMLID_169_" class="st3" cx="1262.2" cy="2068.3" rx="11" ry="11.7"/>
	<ellipse id="XMLID_168_" class="st3" cx="1219.7" cy="2068.3" rx="11" ry="11.7"/>
	<ellipse id="XMLID_167_" class="st3" cx="1262.2" cy="2323.4" rx="11" ry="11.7"/>
	<ellipse id="XMLID_166_" class="st3" cx="1219.7" cy="2323.4" rx="11" ry="11.7"/>
	<ellipse id="XMLID_165_" class="st1" cx="1134.6" cy="2708.9" rx="11" ry="11.7"/>
	<ellipse id="XMLID_164_" class="st1" cx="1211.2" cy="2635.2" rx="11" ry="11.7"/>
	<ellipse id="XMLID_163_" class="st2" cx="1007.1" cy="3542.3" rx="11" ry="11.7"/>
	<ellipse id="XMLID_162_" class="st2" cx="1007.1" cy="3060.4" rx="11" ry="11.7"/>
	<ellipse id="XMLID_161_" class="st2" cx="1095" cy="3542.3" rx="11" ry="11.7"/>
	<ellipse id="XMLID_160_" class="st2" cx="1095" cy="3060.4" rx="11" ry="11.7"/>
	<g id="XMLID_155_">
		<ellipse id="XMLID_159_" class="st2" cx="723.1" cy="3981.7" rx="11" ry="11.7"/>
		<ellipse id="XMLID_158_" class="st2" cx="794" cy="3981.7" rx="11" ry="11.7"/>
		<ellipse id="XMLID_157_" class="st2" cx="723.1" cy="3925" rx="11" ry="11.7"/>
		<ellipse id="XMLID_156_" class="st2" cx="794" cy="3925" rx="11" ry="11.7"/>
	</g>
	<g id="XMLID_150_">
		<ellipse id="XMLID_154_" class="st2" cx="907.4" cy="3981.7" rx="11" ry="11.7"/>
		<ellipse id="XMLID_153_" class="st2" cx="978.3" cy="3981.7" rx="11" ry="11.7"/>
		<ellipse id="XMLID_152_" class="st2" cx="907.4" cy="3925" rx="11" ry="11.7"/>
		<ellipse id="XMLID_151_" class="st2" cx="978.3" cy="3925" rx="11" ry="11.7"/>
	</g>
	<g id="XMLID_141_">
		<line id="XMLID_149_" class="st4" x1="1497.1" y1="977" x2="0" y2="977"/>
		<line id="XMLID_148_" class="st4" x1="1378.4" y1="364" x2="1378.4" y2="4037.5"/>
		<line id="XMLID_147_" class="st4" x1="1497.1" y1="438.4" x2="375.3" y2="438.4"/>
		<line id="XMLID_146_" class="st4" x1="1262.2" y1="2068.3" x2="1262.2" y2="364"/>
		<line id="XMLID_145_" class="st4" x1="430.3" y1="711.7" x2="1608.2" y2="711.7"/>
		<g id="XMLID_142_">
			<circle id="XMLID_144_" class="st5" cx="782.5" cy="977" r="425.2"/>
			<circle id="XMLID_143_" class="st5" cx="778.5" cy="977" r="538.6"/>
		</g>
	</g>
	<ellipse id="XMLID_140_" class="st1" cx="1203" cy="977" rx="11.1" ry="11.7"/>
	<ellipse id="XMLID_139_" class="st1" cx="1160.2" cy="850.7" rx="11.1" ry="11.7"/>
	<ellipse id="XMLID_138_" class="st1" cx="1194.7" cy="1109.9" rx="11.1" ry="11.7"/>
	<ellipse id="XMLID_137_" class="st6" cx="778.5" cy="977" rx="11" ry="11.7"/>
	<ellipse id="XMLID_136_" class="st3" cx="1149.6" cy="574.3" rx="11.1" ry="11.7"/>
	<ellipse id="XMLID_135_" class="st3" cx="833.6" cy="438.6" rx="11.1" ry="11.7"/>
	<ellipse id="XMLID_134_" class="st3" cx="967" cy="454.4" rx="11.1" ry="11.7"/>
	<ellipse id="XMLID_133_" class="st3" cx="1232.8" cy="688.5" rx="11.1" ry="11.7"/>
	<ellipse id="XMLID_132_" class="st3" cx="1262.9" cy="818.4" rx="11.1" ry="11.7"/>
	<ellipse id="XMLID_131_" class="st3" cx="1279.6" cy="950.5" rx="11.1" ry="11.7"/>
	<ellipse id="XMLID_130_" class="st3" cx="1279.6" cy="1036.8" rx="11.1" ry="11.7"/>
	<ellipse id="XMLID_129_" class="st3" cx="1279.6" cy="1125" rx="11.1" ry="11.7"/>
	<line id="XMLID_128_" class="st7" x1="782.5" y1="977" x2="357.3" y2="977"/>
	<ellipse id="XMLID_127_" class="st1" cx="357.3" cy="977" rx="11" ry="11.7"/>
	<ellipse id="XMLID_126_" class="st1" cx="399.7" cy="850.7" rx="11" ry="11.7"/>
	<ellipse id="XMLID_125_" class="st1" cx="376.5" cy="1109.9" rx="11" ry="11.7"/>
	<ellipse id="XMLID_124_" class="st3" cx="410.3" cy="574.3" rx="11" ry="11.7"/>
	<ellipse id="XMLID_123_" class="st3" cx="723.8" cy="438.6" rx="11" ry="11.7"/>
	<ellipse id="XMLID_122_" class="st3" cx="591.5" cy="454.4" rx="11" ry="11.7"/>
	<ellipse id="XMLID_121_" class="st3" cx="327.8" cy="688.5" rx="11" ry="11.7"/>
	<ellipse id="XMLID_120_" class="st3" cx="297.9" cy="818.4" rx="11" ry="11.7"/>
	<ellipse id="XMLID_119_" class="st3" cx="281.3" cy="935.5" rx="11" ry="11.7"/>
	<ellipse id="XMLID_118_" class="st3" cx="281.3" cy="1036.8" rx="11" ry="11.7"/>
	<ellipse id="XMLID_117_" class="st3" cx="281.3" cy="1125" rx="11" ry="11.7"/>
	<line id="XMLID_116_" class="st7" x1="327.8" y1="688.5" x2="778.5" y2="977"/>
	<path id="XMLID_190_" class="st7" d="M1243,1937.5c0,0,8,378-6.7,434c-14.7,56-60.7,204.8-51.3,263.7
		c9.3,58.9,56.7,635.2,56.7,890.4"/>
</g>
<g id="Layer_3">
</g>
<g id="Layer_2">
	<g id="XMLID_43_">
		<line id="XMLID_2_" class="st8" x1="0.5" y1="3981.7" x2="3159.4" y2="3981.7"/>
		<line id="XMLID_4_" class="st8" x1="0.5" y1="3697.3" x2="3159.4" y2="3697.3"/>
		<line id="XMLID_5_" class="st8" x1="0.5" y1="3412.9" x2="3159.4" y2="3412.9"/>
		<line id="XMLID_6_" class="st8" x1="0.5" y1="3128.5" x2="3159.4" y2="3128.5"/>
		<line id="XMLID_7_" class="st8" x1="0.5" y1="2844.1" x2="3159.4" y2="2844.1"/>
		<line id="XMLID_8_" class="st8" x1="0.5" y1="2559.7" x2="3159.4" y2="2559.7"/>
		<line id="XMLID_9_" class="st8" x1="0.5" y1="2275.4" x2="3159.4" y2="2275.4"/>
		<line id="XMLID_10_" class="st8" x1="0.5" y1="1991" x2="3159.4" y2="1991"/>
		<line id="XMLID_11_" class="st8" x1="0.5" y1="1706.6" x2="3159.4" y2="1706.6"/>
		<line id="XMLID_12_" class="st8" x1="0.5" y1="1422.2" x2="3159.4" y2="1422.2"/>
		<line id="XMLID_13_" class="st8" x1="0.5" y1="1137.8" x2="3159.4" y2="1137.8"/>
		<line id="XMLID_14_" class="st8" x1="0.5" y1="853.4" x2="3159.4" y2="853.4"/>
		<line id="XMLID_15_" class="st8" x1="0.5" y1="569" x2="3159.4" y2="569"/>
		<line id="XMLID_16_" class="st8" x1="0.5" y1="284.6" x2="3159.4" y2="284.6"/>
		<line id="XMLID_17_" class="st8" x1="0.5" y1="0.2" x2="3159.4" y2="0.2"/>
		<line id="XMLID_3_" class="st8" x1="0.5" y1="4265.2" x2="3159.4" y2="4265.2"/>
		<line id="XMLID_30_" class="st8" x1="0.5" y1="0.2" x2="0.5" y2="4265.2"/>
		<line id="XMLID_32_" class="st8" x1="283.9" y1="0.2" x2="283.9" y2="4265.2"/>
		<line id="XMLID_33_" class="st8" x1="567.4" y1="0.2" x2="567.4" y2="4265.2"/>
		<line id="XMLID_34_" class="st8" x1="850.9" y1="0.2" x2="850.9" y2="4265.2"/>
		<line id="XMLID_35_" class="st8" x1="1134.3" y1="0.2" x2="1134.3" y2="4265.2"/>
		<line id="XMLID_36_" class="st8" x1="1417.8" y1="0.2" x2="1417.8" y2="4265.2"/>
		<line id="XMLID_37_" class="st8" x1="1701.3" y1="0.2" x2="1701.3" y2="4265.2"/>
		<line id="XMLID_38_" class="st8" x1="1984.7" y1="0.2" x2="1984.7" y2="4265.2"/>
		<line id="XMLID_39_" class="st8" x1="2268.2" y1="0.2" x2="2268.2" y2="4265.2"/>
		<line id="XMLID_40_" class="st8" x1="2551.7" y1="0.2" x2="2551.7" y2="4265.2"/>
		<line id="XMLID_41_" class="st8" x1="2835.1" y1="0.2" x2="2835.1" y2="4265.2"/>
		<line id="XMLID_42_" class="st8" x1="3118.6" y1="0.2" x2="3118.6" y2="4265.2"/>
	</g>
</g>
</svg>
