<?xml version="1.0" encoding="utf-8"?>
<!-- Generator: Adobe Illustrator 19.0.0, SVG Export Plug-In . SVG Version: 6.00 Build 0)  -->
<svg version="1.1" xmlns="http://www.w3.org/2000/svg" xmlns:xlink="http://www.w3.org/1999/xlink" x="0px" y="0px"
	 viewBox="0 0 3159.9 4265.4" style="enable-background:new 0 0 3159.9 4265.4;" xml:space="preserve">
<style type="text/css">
	.st0{font-family:'MyriadPro-Regular';}
	.st1{font-size:36px;}
	.st2{fill:none;stroke:#A7A9AC;stroke-width:0.75;stroke-miterlimit:10;}
	.st3{stroke:#000000;stroke-miterlimit:10;}
	.st4{fill:#FFFFFF;stroke:#000000;stroke-miterlimit:10;}
	.st5{fill:none;}
	.st6{fill:none;stroke:#000000;stroke-miterlimit:10;}
	.st7{fill:none;stroke:#000000;stroke-width:2;stroke-miterlimit:10;}
	.st8{fill:none;stroke:#000000;stroke-width:0.5;stroke-miterlimit:10;}
	.st9{fill:#FFF200;stroke:#000000;stroke-width:2;stroke-miterlimit:10;}
	.st10{fill:#00AEEF;stroke:#000000;stroke-width:2;stroke-miterlimit:10;}
	.st11{fill:#808285;stroke:#FFFFFF;stroke-width:2;stroke-miterlimit:10;}
	.st12{fill:#00A651;stroke:#000000;stroke-width:2;stroke-miterlimit:10;}
	.st13{fill:#ED1C24;stroke:#000000;stroke-width:2;stroke-miterlimit:10;}
	.st14{display:none;}
	.st15{display:inline;fill:none;stroke:#ED1C24;stroke-width:2;stroke-miterlimit:10;}
	.st16{display:inline;}
	.st17{fill:none;stroke:#ED1C24;stroke-miterlimit:10;}
	.st18{stroke:#000000;stroke-width:2;stroke-miterlimit:10;}
	.st19{fill:none;stroke:#000000;stroke-width:2;stroke-miterlimit:10;stroke-dasharray:12.1332,6.0666;}
</style>
<g id="gridlines">
	<text id="XMLID_44_" transform="matrix(1 0 0 1 306 4043.4983)"><tspan x="0" y="0" class="st0 st1">Gridlines are 10m spacing</tspan><tspan x="0" y="43.2" class="st0 st1">Scale size of cones is 40cm across - most cones are smaller than this</tspan></text>
	<g id="Scale">
		<g id="XMLID_43_">
			<line id="XMLID_2_" class="st2" x1="0.5" y1="3981.7" x2="3159.4" y2="3981.7"/>
			<line id="XMLID_4_" class="st2" x1="0.5" y1="3697.3" x2="3159.4" y2="3697.3"/>
			<line id="XMLID_5_" class="st2" x1="0.5" y1="3412.9" x2="3159.4" y2="3412.9"/>
			<line id="XMLID_6_" class="st2" x1="0.5" y1="3128.5" x2="3159.4" y2="3128.5"/>
			<line id="XMLID_7_" class="st2" x1="0.5" y1="2844.1" x2="3159.4" y2="2844.1"/>
			<line id="XMLID_8_" class="st2" x1="0.5" y1="2559.7" x2="3159.4" y2="2559.7"/>
			<line id="XMLID_9_" class="st2" x1="0.5" y1="2275.4" x2="3159.4" y2="2275.4"/>
			<line id="XMLID_10_" class="st2" x1="0.5" y1="1991" x2="3159.4" y2="1991"/>
			<line id="XMLID_11_" class="st2" x1="0.5" y1="1706.6" x2="3159.4" y2="1706.6"/>
			<line id="XMLID_12_" class="st2" x1="0.5" y1="1422.2" x2="3159.4" y2="1422.2"/>
			<line id="XMLID_13_" class="st2" x1="0.5" y1="1137.8" x2="3159.4" y2="1137.8"/>
			<line id="XMLID_14_" class="st2" x1="0.5" y1="853.4" x2="3159.4" y2="853.4"/>
			<line id="XMLID_15_" class="st2" x1="0.5" y1="569" x2="3159.4" y2="569"/>
			<line id="XMLID_16_" class="st2" x1="0.5" y1="284.6" x2="3159.4" y2="284.6"/>
			<line id="XMLID_17_" class="st2" x1="0.5" y1="0.2" x2="3159.4" y2="0.2"/>
			<line id="XMLID_3_" class="st2" x1="0.5" y1="4265.2" x2="3159.4" y2="4265.2"/>
			<line id="XMLID_30_" class="st2" x1="0.5" y1="0.2" x2="0.5" y2="4265.2"/>
			<line id="XMLID_32_" class="st2" x1="283.9" y1="0.2" x2="283.9" y2="4265.2"/>
			<line id="XMLID_33_" class="st2" x1="567.4" y1="0.2" x2="567.4" y2="4265.2"/>
			<line id="XMLID_34_" class="st2" x1="850.9" y1="0.2" x2="850.9" y2="4265.2"/>
			<line id="XMLID_35_" class="st2" x1="1134.3" y1="0.2" x2="1134.3" y2="4265.2"/>
			<line id="XMLID_36_" class="st2" x1="1417.8" y1="0.2" x2="1417.8" y2="4265.2"/>
			<line id="XMLID_37_" class="st2" x1="1701.3" y1="0.2" x2="1701.3" y2="4265.2"/>
			<line id="XMLID_38_" class="st2" x1="1984.7" y1="0.2" x2="1984.7" y2="4265.2"/>
			<line id="XMLID_39_" class="st2" x1="2268.2" y1="0.2" x2="2268.2" y2="4265.2"/>
			<line id="XMLID_40_" class="st2" x1="2551.7" y1="0.2" x2="2551.7" y2="4265.2"/>
			<line id="XMLID_41_" class="st2" x1="2835.1" y1="0.2" x2="2835.1" y2="4265.2"/>
			<line id="XMLID_42_" class="st2" x1="3118.6" y1="0.2" x2="3118.6" y2="4265.2"/>
		</g>
		<rect id="XMLID_22_" x="283.9" y="3412.8" class="st3" width="34.1" height="284.5"/>
		<rect id="XMLID_190_" x="283.9" y="2559.7" class="st3" width="34.1" height="568.9"/>
		<rect id="XMLID_24_" x="283.9" y="3128.5" class="st4" width="34.1" height="284.3"/>
		<rect id="XMLID_25_" x="283.9" y="3697.3" class="st4" width="34.1" height="141.6"/>
		<rect id="XMLID_27_" x="283.9" y="3953.1" class="st3" width="34.1" height="28.3"/>
		<rect id="XMLID_28_" x="283.9" y="3895.6" class="st3" width="34.1" height="28.3"/>
		<rect id="XMLID_29_" x="283.9" y="3867.3" class="st4" width="34.1" height="28.3"/>
		<rect id="XMLID_189_" x="283.9" y="3924.7" class="st4" width="34.1" height="28.3"/>
		<rect id="XMLID_26_" x="283.9" y="3838.9" class="st3" width="34.1" height="28.3"/>
		<path id="XMLID_x5F_23_x5F__1_" class="st5" d="M318,3838.9h85"/>
		<text id="XMLID_194_">		<textPath  xlink:href="#XMLID_x5F_23_x5F__1_" startOffset="21.582%">
<tspan  class="st0 st1">5m</tspan>		</textPath>
</text>
		<path id="XMLID_x5F_191_x5F__1_" class="st5" d="M318,3690.3h85"/>
		<text id="XMLID_195_">		<textPath  xlink:href="#XMLID_x5F_191_x5F__1_" startOffset="19.3359%">
<tspan  class="st0 st1">10m</tspan>		</textPath>
</text>
		<path id="XMLID_x5F_198_x5F__1_" class="st5" d="M318,3407.9h85"/>
		<text id="XMLID_197_">		<textPath  xlink:href="#XMLID_x5F_198_x5F__1_" startOffset="19.3359%">
<tspan  class="st0 st1">20m</tspan>		</textPath>
</text>
		<path id="XMLID_x5F_199_x5F_" class="st5" d="M318,3120.7h85"/>
		<text id="XMLID_196_">		<textPath  xlink:href="#XMLID_x5F_199_x5F_" startOffset="19.3359%">
<tspan  class="st0 st1">30m</tspan>		</textPath>
</text>
		<line id="XMLID_193_" class="st6" x1="318" y1="2559.7" x2="403" y2="2559.7"/>
	</g>
	<line id="XMLID_1_" class="st7" x1="283.9" y1="3838.9" x2="318" y2="3838.9"/>
	<line id="XMLID_18_" class="st8" x1="283.9" y1="3838.9" x2="318" y2="3838.9"/>
	<line id="XMLID_20_" class="st8" x1="283.9" y1="3810.6" x2="318" y2="3810.6"/>
	<line id="XMLID_21_" class="st8" x1="283.9" y1="3782.2" x2="318" y2="3782.2"/>
	<line id="XMLID_31_" class="st8" x1="283.9" y1="3753.9" x2="318" y2="3753.9"/>
	<line id="XMLID_141_" class="st8" x1="283.9" y1="3725.5" x2="318" y2="3725.5"/>
	<line id="XMLID_208_" class="st8" x1="283.9" y1="3412.9" x2="318" y2="3412.9"/>
	<line id="XMLID_207_" class="st8" x1="283.9" y1="3384.6" x2="318" y2="3384.6"/>
	<line id="XMLID_206_" class="st8" x1="283.9" y1="3356.2" x2="318" y2="3356.2"/>
	<line id="XMLID_205_" class="st8" x1="283.9" y1="3327.9" x2="318" y2="3327.9"/>
	<line id="XMLID_174_" class="st8" x1="283.9" y1="3299.5" x2="318" y2="3299.5"/>
	<line id="XMLID_213_" class="st8" x1="283.9" y1="3271.2" x2="318" y2="3271.2"/>
	<line id="XMLID_212_" class="st8" x1="283.9" y1="3242.8" x2="318" y2="3242.8"/>
	<line id="XMLID_211_" class="st8" x1="283.9" y1="3214.5" x2="318" y2="3214.5"/>
	<line id="XMLID_210_" class="st8" x1="283.9" y1="3186.1" x2="318" y2="3186.1"/>
	<line id="XMLID_209_" class="st8" x1="283.9" y1="3157.8" x2="318" y2="3157.8"/>
</g>
<g id="Cones_and_markings__x28_RH_circuit_x29_">
	<g id="Slalom__x26__figure-8">
		<ellipse id="XMLID_188_" class="st9" cx="853.3" cy="3698.2" rx="5.5" ry="5.8"/>
		<ellipse id="XMLID_187_" class="st9" cx="853.3" cy="3570.7" rx="5.5" ry="5.8"/>
		<ellipse id="XMLID_186_" class="st9" cx="853.3" cy="3443.1" rx="5.5" ry="5.8"/>
		<ellipse id="XMLID_185_" class="st9" cx="853.3" cy="3315.6" rx="5.5" ry="5.8"/>
		<ellipse id="XMLID_184_" class="st9" cx="853.3" cy="3188" rx="5.5" ry="5.8"/>
		<ellipse id="XMLID_183_" class="st10" cx="853.3" cy="3060.4" rx="5.5" ry="5.8"/>
		<ellipse id="XMLID_182_" class="st10" cx="853.3" cy="2862" rx="5.5" ry="5.8"/>
	</g>
	<g id="U-turn_cones_and_lines">
		<rect id="XMLID_59_" x="1001.6" y="3807.5" class="st11" width="11" height="109"/>
		<rect id="XMLID_65_" x="1214.2" y="3807.5" class="st11" width="11" height="109"/>
		<ellipse id="XMLID_180_" class="st9" cx="1007.1" cy="3916.5" rx="5.5" ry="5.8"/>
		<ellipse id="XMLID_179_" class="st12" cx="1219.7" cy="3916.5" rx="5.5" ry="5.8"/>
	</g>
	<g id="Stop_box__x28_for_20mph_circuit__x26__30mph_weave_x29_">
		<ellipse id="XMLID_178_" class="st10" cx="1219.7" cy="3542.3" rx="5.5" ry="5.8"/>
		<ellipse id="XMLID_177_" class="st10" cx="1262.2" cy="3542.3" rx="5.5" ry="5.8"/>
		<ellipse id="XMLID_176_" class="st10" cx="1219.7" cy="3514" rx="5.5" ry="5.8"/>
		<ellipse id="XMLID_175_" class="st10" cx="1262.2" cy="3514" rx="5.5" ry="5.8"/>
	</g>
	<g id="Gate_for_20_x2F_30mph_circuit_and_stop_x2F_emergency_stop">
		<ellipse id="XMLID_173_" class="st13" cx="1262.2" cy="2635.2" rx="5.5" ry="5.8"/>
		<ellipse id="XMLID_172_" class="st13" cx="1219.7" cy="2635.2" rx="5.5" ry="5.8"/>
	</g>
	<g id="Entry_gate_for_speed_trap">
		<ellipse id="XMLID_169_" class="st13" cx="1262.2" cy="2068.3" rx="5.5" ry="5.8"/>
		<ellipse id="XMLID_168_" class="st13" cx="1219.7" cy="2068.3" rx="5.5" ry="5.8"/>
	</g>
	<g id="Speed_trap">
		<rect id="XMLID_192_" x="1214.2" y="2323.4" width="11" height="28.3"/>
		<rect id="XMLID_201_" x="1256.7" y="2323.4" width="11" height="28.3"/>
		<ellipse id="XMLID_171_" class="st9" cx="1262.2" cy="2351.8" rx="5.5" ry="5.8"/>
		<ellipse id="XMLID_170_" class="st9" cx="1219.7" cy="2351.8" rx="5.5" ry="5.8"/>
		<ellipse id="XMLID_167_" class="st13" cx="1262.2" cy="2323.4" rx="5.5" ry="5.8"/>
		<ellipse id="XMLID_166_" class="st13" cx="1219.7" cy="2323.4" rx="5.5" ry="5.8"/>
	</g>
	<g id="Gate_for_30mph_weave">
		<ellipse id="XMLID_165_" class="st10" cx="1134.6" cy="2708.9" rx="5.5" ry="5.8"/>
		<ellipse id="XMLID_164_" class="st10" cx="1211.2" cy="2635.2" rx="5.5" ry="5.8"/>
	</g>
	<g id="Unknown_extra_green_cones">
		<ellipse id="XMLID_163_" class="st12" cx="1007.1" cy="3542.3" rx="5.5" ry="5.8"/>
		<ellipse id="XMLID_162_" class="st12" cx="1007.1" cy="3060.4" rx="5.5" ry="5.8"/>
		<ellipse id="XMLID_161_" class="st12" cx="1095" cy="3542.3" rx="5.5" ry="5.8"/>
		<ellipse id="XMLID_160_" class="st12" cx="1095" cy="3060.4" rx="5.5" ry="5.8"/>
	</g>
	<g id="manual_handling_boxes">
		<g id="XMLID_155_">
			<ellipse id="XMLID_159_" class="st12" cx="723.1" cy="3981.7" rx="5.5" ry="5.8"/>
			<ellipse id="XMLID_158_" class="st12" cx="794" cy="3981.7" rx="5.5" ry="5.8"/>
			<ellipse id="XMLID_157_" class="st12" cx="723.1" cy="3925" rx="5.5" ry="5.8"/>
			<ellipse id="XMLID_156_" class="st12" cx="794" cy="3925" rx="5.5" ry="5.8"/>
		</g>
		<g id="XMLID_150_">
			<ellipse id="XMLID_154_" class="st12" cx="907.4" cy="3981.7" rx="5.5" ry="5.8"/>
			<ellipse id="XMLID_153_" class="st12" cx="978.3" cy="3981.7" rx="5.5" ry="5.8"/>
			<ellipse id="XMLID_152_" class="st12" cx="907.4" cy="3925" rx="5.5" ry="5.8"/>
			<ellipse id="XMLID_151_" class="st12" cx="978.3" cy="3925" rx="5.5" ry="5.8"/>
		</g>
	</g>
	<g id="Reference_lines" class="st14">
		<line id="XMLID_149_" class="st15" x1="1497.1" y1="977" x2="0" y2="977"/>
		<line id="XMLID_148_" class="st15" x1="1378.4" y1="364" x2="1378.4" y2="4037.5"/>
		<line id="XMLID_147_" class="st15" x1="1497.1" y1="438.4" x2="375.3" y2="438.4"/>
		<line id="XMLID_146_" class="st15" x1="1262.2" y1="2068.3" x2="1262.2" y2="364"/>
		<line id="XMLID_145_" class="st15" x1="430.3" y1="711.7" x2="1608.2" y2="711.7"/>
		<g id="XMLID_142_" class="st16">
			<circle id="XMLID_144_" class="st17" cx="782.5" cy="977" r="425.2"/>
			<circle id="XMLID_143_" class="st17" cx="778.5" cy="977" r="538.6"/>
		</g>
	</g>
	<ellipse id="Corner_centre_marker" class="st18" cx="778.5" cy="977" rx="11" ry="11.7"/>
	<g id="Inside_line_for_20_x2F_30mph_corner">
		<ellipse id="XMLID_140_" class="st10" cx="1203" cy="977" rx="5.5" ry="5.8"/>
		<ellipse id="XMLID_139_" class="st10" cx="1160.2" cy="850.7" rx="5.5" ry="5.8"/>
		<ellipse id="XMLID_138_" class="st10" cx="1194.7" cy="1109.9" rx="5.5" ry="5.8"/>
		<ellipse id="XMLID_127_" class="st10" cx="357.3" cy="977" rx="5.5" ry="5.8"/>
		<ellipse id="XMLID_126_" class="st10" cx="399.7" cy="850.7" rx="5.5" ry="5.8"/>
		<ellipse id="XMLID_125_" class="st10" cx="376.5" cy="1109.9" rx="5.5" ry="5.8"/>
	</g>
	<g id="Outside_line_for_20_x2F_30mph_corner">
		<ellipse id="XMLID_136_" class="st13" cx="1149.6" cy="574.3" rx="5.5" ry="5.8"/>
		<ellipse id="XMLID_135_" class="st13" cx="833.6" cy="438.6" rx="5.5" ry="5.8"/>
		<ellipse id="XMLID_134_" class="st13" cx="967" cy="454.4" rx="5.5" ry="5.8"/>
		<ellipse id="XMLID_133_" class="st13" cx="1232.8" cy="688.5" rx="5.5" ry="5.8"/>
		<ellipse id="XMLID_132_" class="st13" cx="1262.9" cy="818.4" rx="5.5" ry="5.8"/>
		<ellipse id="XMLID_131_" class="st13" cx="1279.6" cy="950.5" rx="5.5" ry="5.8"/>
		<ellipse id="XMLID_130_" class="st13" cx="1279.6" cy="1036.8" rx="5.5" ry="5.8"/>
		<ellipse id="XMLID_129_" class="st13" cx="1279.6" cy="1125" rx="5.5" ry="5.8"/>
		<ellipse id="XMLID_124_" class="st13" cx="410.3" cy="574.3" rx="5.5" ry="5.8"/>
		<ellipse id="XMLID_123_" class="st13" cx="723.8" cy="438.6" rx="5.5" ry="5.8"/>
		<ellipse id="XMLID_122_" class="st13" cx="591.5" cy="454.4" rx="5.5" ry="5.8"/>
		<ellipse id="XMLID_121_" class="st13" cx="327.8" cy="688.5" rx="5.5" ry="5.8"/>
		<ellipse id="XMLID_120_" class="st13" cx="297.9" cy="818.4" rx="5.5" ry="5.8"/>
		<ellipse id="XMLID_119_" class="st13" cx="281.3" cy="935.5" rx="5.5" ry="5.8"/>
		<ellipse id="XMLID_118_" class="st13" cx="281.3" cy="1036.8" rx="5.5" ry="5.8"/>
		<ellipse id="XMLID_117_" class="st13" cx="281.3" cy="1125" rx="5.5" ry="5.8"/>
	</g>
	<g id="Inside__x26__outside_radii_for_corner">
		<line id="XMLID_128_" class="st8" x1="782.5" y1="977" x2="357.3" y2="977"/>
		<line id="XMLID_116_" class="st8" x1="327.8" y1="688.5" x2="778.5" y2="977"/>
	</g>
</g>
<g id="Cones_and_markings__x28_LH_circuiit_x29_">
	<g id="Slalom__x26__figure-8_1_">
		<ellipse id="XMLID_137_" class="st9" cx="2133.1" cy="3698.2" rx="5.5" ry="5.8"/>
		<ellipse id="XMLID_115_" class="st9" cx="2133.1" cy="3570.7" rx="5.5" ry="5.8"/>
		<ellipse id="XMLID_114_" class="st9" cx="2133.1" cy="3443.1" rx="5.5" ry="5.8"/>
		<ellipse id="XMLID_113_" class="st9" cx="2133.1" cy="3315.6" rx="5.5" ry="5.8"/>
		<ellipse id="XMLID_112_" class="st9" cx="2133.1" cy="3188" rx="5.5" ry="5.8"/>
		<ellipse id="XMLID_111_" class="st10" cx="2133.1" cy="3060.4" rx="5.5" ry="5.8"/>
		<ellipse id="XMLID_110_" class="st10" cx="2133.1" cy="2862" rx="5.5" ry="5.8"/>
	</g>
	<g id="U-turn_cones_and_lines_1_">
		<rect id="XMLID_109_" x="1973.9" y="3807.5" class="st11" width="11" height="109"/>
		<rect id="XMLID_108_" x="1761.3" y="3807.5" class="st11" width="11" height="109"/>
		<ellipse id="XMLID_107_" class="st9" cx="1979.4" cy="3916.5" rx="5.5" ry="5.8"/>
		<ellipse id="XMLID_106_" class="st12" cx="1766.8" cy="3916.5" rx="5.5" ry="5.8"/>
	</g>
	<g id="Stop_box__x28_for_20mph_circuit__x26__30mph_weave_x29__1_">
		<ellipse id="XMLID_105_" class="st10" cx="1766.8" cy="3542.3" rx="5.5" ry="5.8"/>
		<ellipse id="XMLID_104_" class="st10" cx="1724.2" cy="3542.3" rx="5.5" ry="5.8"/>
		<ellipse id="XMLID_103_" class="st10" cx="1766.8" cy="3514" rx="5.5" ry="5.8"/>
		<ellipse id="XMLID_102_" class="st10" cx="1724.2" cy="3514" rx="5.5" ry="5.8"/>
	</g>
	<g id="Gate_for_20_x2F_30mph_circuit_and_stop_x2F_emergency_stop_1_">
		<ellipse id="XMLID_101_" class="st13" cx="1724.2" cy="2635.2" rx="5.5" ry="5.8"/>
		<ellipse id="XMLID_100_" class="st13" cx="1766.8" cy="2635.2" rx="5.5" ry="5.8"/>
	</g>
	<g id="Entry_gate_for_speed_trap_1_">
		<ellipse id="XMLID_99_" class="st13" cx="1724.2" cy="2068.3" rx="5.5" ry="5.8"/>
		<ellipse id="XMLID_98_" class="st13" cx="1766.8" cy="2068.3" rx="5.5" ry="5.8"/>
	</g>
	<g id="Speed_trap_1_">
		<rect id="XMLID_97_" x="1761.3" y="2323.4" width="11" height="28.3"/>
		<rect id="XMLID_96_" x="1718.7" y="2323.4" width="11" height="28.3"/>
		<ellipse id="XMLID_95_" class="st9" cx="1724.2" cy="2351.8" rx="5.5" ry="5.8"/>
		<ellipse id="XMLID_94_" class="st9" cx="1766.8" cy="2351.8" rx="5.5" ry="5.8"/>
		<ellipse id="XMLID_93_" class="st13" cx="1724.2" cy="2323.4" rx="5.5" ry="5.8"/>
		<ellipse id="XMLID_92_" class="st13" cx="1766.8" cy="2323.4" rx="5.5" ry="5.8"/>
	</g>
	<g id="Gate_for_30mph_weave_1_">
		<ellipse id="XMLID_91_" class="st10" cx="1851.8" cy="2708.9" rx="5.5" ry="5.8"/>
		<ellipse id="XMLID_90_" class="st10" cx="1775.3" cy="2635.2" rx="5.5" ry="5.8"/>
	</g>
	<g id="Unknown_extra_green_cones_1_">
		<ellipse id="XMLID_89_" class="st12" cx="1979.4" cy="3542.3" rx="5.5" ry="5.8"/>
		<ellipse id="XMLID_88_" class="st12" cx="1979.4" cy="3060.4" rx="5.5" ry="5.8"/>
		<ellipse id="XMLID_87_" class="st12" cx="1891.5" cy="3542.3" rx="5.5" ry="5.8"/>
		<ellipse id="XMLID_86_" class="st12" cx="1891.5" cy="3060.4" rx="5.5" ry="5.8"/>
	</g>
	<g id="manual_handling_boxes_1_">
		<g id="XMLID_81_">
			<ellipse id="XMLID_85_" class="st12" cx="2263.3" cy="3981.7" rx="5.5" ry="5.8"/>
			<ellipse id="XMLID_84_" class="st12" cx="2192.4" cy="3981.7" rx="5.5" ry="5.8"/>
			<ellipse id="XMLID_83_" class="st12" cx="2263.3" cy="3925" rx="5.5" ry="5.8"/>
			<ellipse id="XMLID_82_" class="st12" cx="2192.4" cy="3925" rx="5.5" ry="5.8"/>
		</g>
		<g id="XMLID_76_">
			<ellipse id="XMLID_80_" class="st12" cx="2079" cy="3981.7" rx="5.5" ry="5.8"/>
			<ellipse id="XMLID_79_" class="st12" cx="2008.2" cy="3981.7" rx="5.5" ry="5.8"/>
			<ellipse id="XMLID_78_" class="st12" cx="2079" cy="3925" rx="5.5" ry="5.8"/>
			<ellipse id="XMLID_77_" class="st12" cx="2008.2" cy="3925" rx="5.5" ry="5.8"/>
		</g>
	</g>
	<ellipse id="Corner_centre_marker_1_" class="st18" cx="2208" cy="977" rx="11" ry="11.7"/>
	<g id="Inside_line_for_20_x2F_30mph_corner_1_">
		<ellipse id="XMLID_75_" class="st10" cx="1783.4" cy="977" rx="5.5" ry="5.8"/>
		<ellipse id="XMLID_74_" class="st10" cx="1826.2" cy="850.7" rx="5.5" ry="5.8"/>
		<ellipse id="XMLID_73_" class="st10" cx="1791.7" cy="1109.9" rx="5.5" ry="5.8"/>
		<ellipse id="XMLID_72_" class="st10" cx="2629.1" cy="977" rx="5.5" ry="5.8"/>
		<ellipse id="XMLID_71_" class="st10" cx="2586.7" cy="850.7" rx="5.5" ry="5.8"/>
		<ellipse id="XMLID_70_" class="st10" cx="2609.9" cy="1109.9" rx="5.5" ry="5.8"/>
	</g>
	<g id="Outside_line_for_20_x2F_30mph_corner_1_">
		<ellipse id="XMLID_69_" class="st13" cx="1836.8" cy="574.3" rx="5.5" ry="5.8"/>
		<ellipse id="XMLID_68_" class="st13" cx="2152.8" cy="438.6" rx="5.5" ry="5.8"/>
		<ellipse id="XMLID_67_" class="st13" cx="2019.5" cy="454.4" rx="5.5" ry="5.8"/>
		<ellipse id="XMLID_66_" class="st13" cx="1753.7" cy="688.5" rx="5.5" ry="5.8"/>
		<ellipse id="XMLID_64_" class="st13" cx="1723.6" cy="818.4" rx="5.5" ry="5.8"/>
		<ellipse id="XMLID_63_" class="st13" cx="1706.8" cy="950.5" rx="5.5" ry="5.8"/>
		<ellipse id="XMLID_62_" class="st13" cx="1706.8" cy="1036.8" rx="5.5" ry="5.8"/>
		<ellipse id="XMLID_61_" class="st13" cx="1706.8" cy="1125" rx="5.5" ry="5.8"/>
		<ellipse id="XMLID_60_" class="st13" cx="2576.2" cy="574.3" rx="5.5" ry="5.8"/>
		<ellipse id="XMLID_58_" class="st13" cx="2262.7" cy="438.6" rx="5.5" ry="5.8"/>
		<ellipse id="XMLID_57_" class="st13" cx="2394.9" cy="454.4" rx="5.5" ry="5.8"/>
		<ellipse id="XMLID_56_" class="st13" cx="2658.7" cy="688.5" rx="5.5" ry="5.8"/>
		<ellipse id="XMLID_55_" class="st13" cx="2688.5" cy="818.4" rx="5.5" ry="5.8"/>
		<ellipse id="XMLID_54_" class="st13" cx="2705.1" cy="935.5" rx="5.5" ry="5.8"/>
		<ellipse id="XMLID_53_" class="st13" cx="2705.1" cy="1036.8" rx="5.5" ry="5.8"/>
		<ellipse id="XMLID_52_" class="st13" cx="2705.1" cy="1125" rx="5.5" ry="5.8"/>
	</g>
	<g id="Inside__x26__outside_radii_for_corner_1_">
		<line id="XMLID_46_" class="st8" x1="2204" y1="977" x2="2629.1" y2="977"/>
		<line id="XMLID_45_" class="st8" x1="2658.7" y1="688.5" x2="2208" y2="977"/>
	</g>
</g>
<g id="maneuvers__x28_RH_circuit_x29_">
	<path id="High_speed_mvr_x27_s" class="st7" d="M320.7,1427.4c0-145.4-8.5-292.2-5.3-437.3c6.8-314.6,257.5-568,586.5-479.2
		c142.6,38.5,242.6,135.4,308.7,267.2c70.5,140.6,35.6,291.8,12.4,439.9c-26.5,169.2-58.4,334.5-36.2,506.2
		c20.3,157,67.5,311.2,69.5,470.5c0,0-15.3,207.4-15.3,260.1c0,52.7,1,1070.8,1,1070.8s4-413.1-5.5-543.1s-48.5-234-64-317
		s53.5-221.5,67-330.4c7.4-60,17.3-99,16.8-140.4"/>
	<path id="Figure-8" class="st7" d="M795,3060.4c1.9-66.5,107.6-140.9,108-198.4c0.5-57.5-25.8-71.5-52.2-71
		c-26.4,0.5-53.4,23-53.4,69S911,3018.9,911,3060.4c0,41.6-34.7,57.6-60.1,57.6C822.8,3118,794.1,3090.9,795,3060.4z"/>
	<path id="Slalom" class="st7" d="M795,3060.4c-1.3,34.4,27.9,51.4,56.3,68.1c26.5,15.5,52.2,30.8,51.7,59.5
		c-1,59.5-99,64-98.5,127.6c0.5,63.6,98.5,46.4,98.5,127.6c0,72.6-101,39.4-101,127.6c0,69.6,101,49.1,101,127.6
		c0,60-103,139.3-123,161.8s-33,57.5-33,107"/>
	<g id="Slow_ride">
		<g id="XMLID_48_">
			<path id="XMLID_51_" class="st7" d="M910.7,3056.5c0.4,1.3,1,3.2,1.7,5.8"/>
			<path id="XMLID_50_" class="st19" d="M914,3068.1c22,78.4,128.2,477.8,145.3,542"/>
			<path id="XMLID_49_" class="st7" d="M1060.1,3613c1,3.8,1.5,5.8,1.5,5.8"/>
		</g>
	</g>
	<path id="U-turn" class="st7" d="M1016.7,3742.6c0,0,0,35.5,0,47.3c0,59.3,6.7,126.6,96.7,126.6c90,0,96.7-61.2,96.7-116.6
		c0-55.3,0-55.3,0-55.3"/>
</g>
<g id="Maneuvers__x28_LH_circuit_x29_">
	<path id="High_speed_mvr_x27_s_2_" class="st7" d="M2665.8,1427.4c0-145.4,8.5-292.2,5.3-437.3c-6.8-314.6-257.5-568-586.5-479.2
		C1942,549.5,1842,646.4,1775.9,778.2c-70.5,140.6-35.6,291.8-12.4,439.9c26.5,169.2,58.4,334.5,36.2,506.2
		c-20.3,157-67.5,311.2-69.5,470.5c0,0,15.3,207.4,15.3,260.1c0,52.7-1,1070.8-1,1070.8s-4-413.1,5.5-543.1s48.5-234,64-317
		s-53.5-221.5-67-330.4c-7.4-60-17.3-99-16.8-140.4"/>
	<path id="Figure-8_2_" class="st7" d="M2191.4,3060.4c-1.9-66.5-107.6-140.9-108-198.4c-0.5-57.5,25.8-71.5,52.2-71
		c26.4,0.5,53.4,23,53.4,69s-113.5,158.9-113.5,200.4c0,41.6,34.7,57.6,60.1,57.6C2163.7,3118,2192.3,3090.9,2191.4,3060.4z"/>
	<path id="Slalom_2_" class="st7" d="M2191.4,3060.4c1.3,34.4-27.9,51.4-56.3,68.1c-26.5,15.5-52.2,30.8-51.7,59.5
		c1,59.5,99,64,98.5,127.6c-0.5,63.6-98.5,46.4-98.5,127.6c0,72.6,101,39.4,101,127.6c0,69.6-101,49.1-101,127.6
		c0,60,103,139.3,123,161.8s33,57.5,33,107"/>
	<g id="Slow_ride_2_">
		<g id="XMLID_200_">
			<path id="XMLID_204_" class="st7" d="M2075.7,3056.5c-0.4,1.3-1,3.2-1.7,5.8"/>
			<path id="XMLID_203_" class="st19" d="M2072.4,3068.1c-22,78.4-128.2,477.8-145.3,542"/>
			<path id="XMLID_202_" class="st7" d="M1926.3,3613c-1,3.8-1.5,5.8-1.5,5.8"/>
		</g>
	</g>
	<path id="U-turn_1_" class="st7" d="M1969.8,3742.6c0,0,0,35.5,0,47.3c0,59.3-6.7,126.6-96.7,126.6c-90,0-96.7-61.2-96.7-116.6
		c0-55.3,0-55.3,0-55.3"/>
</g>
</svg>
